# xmcd
#
# Track frame offsets:
#	210
#	21442
#	35515
#	57067
#	68735
#	84255
#	100017
#	111797
#	130330
#	151597
#	164852
#	175567
#	195345
#	217000
#	242905
#	257340
#	269297
#	285265
#	295995
#
# Disc length: 4151 seconds
#
# Revision: 0
# Processed by: cddbd v1.5.2PL0 Copyright (c) Steve Scherf et al.
# Submitted via: audiograbber 1.83.01
#
DISCID=02103513
DTITLE=Various Artist - Genuine Mississippi Blues
DYEAR=1981
DGENRE=Blues
TTITLE0=Big Bad Smitty - Smokestack Lightnin
TTITLE1=Big Bad Smitty - How Many More Years
TTITLE2=Sam Myers - Sad And Lonesome
TTITLE3=Sam Myers - You're So Fine
TTITLE4=Sam Myers - Money Is My Downfall
TTITLE5=Sam Myers  - Gold Tail Bird
TTITLE6=Johnny Littlejohn - I Wanna Go Home
TTITLE7=Johnny Littlejohn - I Got My Nose Open
TTITLE8=Johnny Littlejohn - She's Nineteen Years Old
TTITLE9=Elmore James Jr. - Crazy Bout Ida Mae
TTITLE10=Elmore James Jr. - Bad Feeling
TTITLE11=Elmore James Jr. - Cummins Prison Blues
TTITLE12=King Edrward - I Should Quit You, Baby
TTITLE13=King Edward - The Thing I used To Do
TTITLE14=Fred McDowell - Baby, Please Don't Go
TTITLE15=Frankie Lee Sims - Hey Little Girl
TTITLE16=Frankie Lee Sims - Walking With Frankie
TTITLE17=Frankie Lee Sims - What Will Lucy Mae Do
TTITLE18=Guitar Reed - Don't Say A Momblin Word
EXTD=
EXTT0=
EXTT1=
EXTT2=
EXTT3=
EXTT4=
EXTT5=
EXTT6=
EXTT7=
EXTT8=
EXTT9=
EXTT10=
EXTT11=
EXTT12=
EXTT13=
EXTT14=
EXTT15=
EXTT16=
EXTT17=
EXTT18=
PLAYORDER=
